#!OML:ASF H:\Terrain\Walking\May29\JustinRory\Justin.ASF
:FULLY-SPECIFIED
:DEGREES
1565
root 6.34886 17.9667 6.5711 -175.794 4.99997 181.83
lowerback -0.216518 0.445033 -3.08164
upperback 0.726654 0.699044 -2.0016
thorax 0.85612 0.365323 -0.31698
lowerneck -16.0975 -5.19139 -13.0594
upperneck 21.3248 -4.0468 3.33408
head 9.8227 -2.39059 2.80808
rclavicle 6.95746e-016 -7.95139e-015
rhumerus -27.2985 -40.5771 -22.7997
rradius 60.656
rwrist -49.5933
rhand -14.8254 29.897
rfingers 7.12502
rthumb 11.3331 0.223256
lclavicle 6.95746e-016 -7.95139e-015
lhumerus -21.5608 37.2089 32.4682
lradius 48.0213
lwrist 34.5324
lhand 9.9506 31.9788
lfingers 7.12502
lthumb 35.0795 58.5163
rfemur -0.591161 1.80107 11.3838
rtibia 10.3944
rfoot -8.70603 -11.9405
rtoes -2.95036
lfemur -8.21485 2.16808 -23.6348
ltibia 23.2012
lfoot -14.5684 -1.66369
ltoes 5.33937
1566
root 6.34753 17.9703 6.57154 -175.842 5.01816 181.883
lowerback -0.166705 0.462268 -3.06666
upperback 0.780395 0.716435 -1.89925
thorax 0.88172 0.371296 -0.220537
lowerneck -16.2487 -5.17116 -13.2541
upperneck 21.3471 -3.95913 3.39671
head 9.85811 -2.35872 2.87212
rclavicle 7.55382e-015 3.89618e-014
rhumerus -27.3986 -39.5219 -23.5666
rradius 61.6444
rwrist -48.9801
rhand -14.967 29.9639
rfingers 7.12502
rthumb 11.1966 0.282688
lclavicle 7.55382e-015 3.89618e-014
lhumerus -21.9116 35.7168 33.3979
lradius 48.813
lwrist 34.8653
lhand 9.9366 32.0207
lfingers 7.12502
lthumb 35.0662 58.5613
rfemur -0.556593 1.7971 11.4532
rtibia 10.4314
rfoot -8.81737 -12.0919
rtoes -4.54256
lfemur -8.13375 2.64868 -23.5444
ltibia 23.128
lfoot -14.5831 -2.1377
ltoes 5.41769
1567
root 6.34537 17.9747 6.57565 -175.821 5.10392 181.936
lowerback -0.219647 0.526327 -3.08791
upperback 0.833622 0.800608 -1.78163
thorax 0.962373 0.409458 -0.0865529
lowerneck -16.2084 -5.17521 -13.4298
upperneck 21.2498 -3.94252 3.46453
head 9.82101 -2.35618 2.92621
rclavicle 2.08724e-015 2.38542e-014
rhumerus -27.6444 -38.2708 -24.2251
rradius 62.7195
rwrist -48.4729
rhand -14.8852 29.7007
rfingers 7.12502
rthumb 11.2755 0.0237656
lclavicle 2.08724e-015 2.38542e-014
lhumerus -22.181 34.4533 34.4056
lradius 49.5715
lwrist 35.0541
lhand 9.96672 32.371
lfingers 7.12502
lthumb 35.0948 58.9049
rfemur -0.684734 1.79882 11.5032
rtibia 10.582
rfoot -8.96837 -12.1064
rtoes -5.53533
lfemur -8.10668 2.21625 -23.5317
ltibia 23.0477
lfoot -14.5794 -1.55147
ltoes 4.77588
1568
root 6.3433 17.9681 6.58204 -175.803 5.20777 181.757
lowerback -0.240385 0.589158 -3.28158
upperback 0.843128 0.88981 -1.79608
thorax 0.979535 0.453359 0.00800436
lowerneck -16.0378 -5.1917 -13.381
upperneck 21.0504 -3.99408 3.39308
head 9.7205 -2.38182 2.88558
rclavicle -1.35174e-014 2.62396e-014
rhumerus -28.0225 -36.9801 -24.8889
rradius 63.6807
rwrist -47.65
rhand -14.903 29.7839
rfingers 7.12502
rthumb 11.2583 0.106061
lclavicle -1.35174e-014 2.62396e-014
lhumerus -22.4591 33.3618 35.3544
lradius 50.4128
lwrist 34.7066
lhand 10.4084 32.8332
lfingers 7.12502
lthumb 35.5136 59.2677
rfemur -0.912618 1.78404 11.2718
rtibia 10.8341
rfoot -9.02964 -11.9769
rtoes -4.95365
lfemur -8.11687 1.67752 -23.7783
ltibia 22.943
lfoot -14.4327 -0.905016
ltoes 5.07833
1569
root 6.34283 17.9619 6.58634 -175.801 5.35122 181.629
lowerback -0.210361 0.652389 -3.38042
upperback 0.837624 0.977548 -1.85826
thorax 0.954641 0.498649 -0.00011336
lowerneck -15.8666 -5.19522 -13.1618
upperneck 20.7721 -4.05572 3.2213
head 9.58588 -2.40977 2.78012
rclavicle 1.44119e-014 7.95139e-015
rhumerus -28.5155 -35.8331 -25.6584
rradius 64.7069
rwrist -46.4251
rhand -15.3015 30.2682
rfingers 7.12502
rthumb 10.874 0.56971
lclavicle 1.44119e-014 7.95139e-015
lhumerus -22.8907 31.9302 36.2367
lradius 51.4863
lwrist 34.3141
lhand 11.1237 33.014
lfingers 7.12502
lthumb 36.1913 59.2833
rfemur -1.18577 1.73134 11.107
rtibia 11.2043
rfoot -9.0752 -11.8226
rtoes -5.34481
lfemur -8.08406 1.64879 -23.9332
ltibia 22.7965
lfoot -14.2708 -0.801464
ltoes 6.10161
1570
root 6.34113 17.9629 6.5891 -175.746 5.52149 181.451
lowerback -0.313263 0.692257 -3.57169
upperback 0.90288 1.04321 -1.87262
thorax 1.07503 0.529177 0.0945983
lowerneck -15.8733 -5.19716 -13.0742
upperneck 20.5099 -4.06076 3.06844
head 9.48965 -2.42027 2.70831
rclavicle -3.08116e-015 -4.77083e-015
rhumerus -28.69 -34.8485 -26.5346
rradius 65.5845
rwrist -45.061
rhand -15.4244 30.6097
rfingers 7.12502
rthumb 10.7554 0.905056
lclavicle -3.08116e-015 -4.77083e-015
lhumerus -23.3991 30.7033 37.2372
lradius 52.6298
lwrist 33.8808
lhand 11.2418 33.2479
lfingers 7.12502
lthumb 36.3032 59.4893
rfemur -1.44975 1.61036 10.8669
rtibia 11.4861
rfoot -9.12684 -11.5603
rtoes -5.40807
lfemur -8.12411 1.72886 -24.1507
ltibia 22.6916
lfoot -14.2423 -0.761337
ltoes 6.4166
